<svg id="Layer_1" enable-background="new 0 0 100 100" height="512" viewBox="0 0 100 100" width="512" xmlns="http://www.w3.org/2000/svg"><path d="m93 90h-11v-41.3l.5.3c2.3 1.5 5.2 1.7 7.6.4s3.9-3.8 3.9-6.5c0-2.5-1.2-4.8-3.3-6.2l-39.6-26.4c-.7-.4-1.5-.4-2.2 0l-14.9 10v-6.3c0-4.4-3.6-8-8-8s-8 3.6-8 8v16.9l-8.7 5.8c-2.1 1.4-3.3 3.7-3.3 6.2 0 2.7 1.5 5.2 3.9 6.5 1.1.6 2.3.9 3.5.9 1.4 0 2.9-.4 4.1-1.2l.5-.3v41.2h-11c-1.1 0-2 .9-2 2s.9 2 2 2h86c1.1 0 2-.9 2-2s-.9-2-2-2zm-67-80c2.2 0 4 1.8 4 4v8.9l-8 5.3v-14.2c0-2.2 1.8-4 4-4zm-10.7 35.7c-1.1.7-2.4.8-3.5.2s-1.8-1.7-1.8-3c0-1.1.6-2.2 1.5-2.8l9.6-6.4 12-8 16.9-11.3 38.5 25.7c1 .6 1.5 1.7 1.5 2.8 0 1.3-.7 2.4-1.8 3s-2.4.5-3.5-.2l-3.6-2.4-30-20c-.7-.4-1.5-.4-2.2 0l-30 20zm6.7.4 28-18.7 28 18.7v43.9h-56zm26.4 29.1c.4.5 1 .8 1.6.8s1.2-.3 1.6-.8l12-16c.5-.6.5-1.4.2-2.1s-1-1.1-1.8-1.1h-5v-13c0-1.1-.9-2-2-2h-10c-1.1 0-2 .9-2 2v13h-5c-.8 0-1.5.4-1.8 1.1s-.3 1.5.2 2.1zm-3.4-15.2c1.1 0 2-.9 2-2v-13h6v13c0 1.1.9 2 2 2h3l-8 10.7-8-10.7zm25 14v8c0 1.1-.9 2-2 2h-36c-1.1 0-2-.9-2-2v-8c0-1.1.9-2 2-2s2 .9 2 2v6h32v-6c0-1.1.9-2 2-2s2 .9 2 2z"/></svg>