<svg height="512" viewBox="0 0 64 64" width="512" xmlns="http://www.w3.org/2000/svg"><path d="m61 36h-6a1 1 0 0 0 -1 1v3h-7.838l-8.846-2.948a1 1 0 0 0 -.316-.052h-13a1 1 0 0 0 -.707.293l-1.707 1.707h-11.586v-2a1 1 0 0 0 -1-1h-6a1 1 0 0 0 -1 1v20a1 1 0 0 0 1 1h6a1 1 0 0 0 1-1v-2h10.586l6.707 6.707a1 1 0 0 0 .707.293h6a1 1 0 0 0 .707-1.707l-.293-.293h3.586a1 1 0 0 0 .707-1.707l-.293-.293h3.586a1 1 0 0 0 .707-1.707l-.293-.293h3.586a1 1 0 0 0 .707-1.707l-.293-.293h7.586v3a1 1 0 0 0 1 1h6a1 1 0 0 0 1-1v-20a1 1 0 0 0 -1-1zm-53 20h-4v-18h4zm46-4h-9.586l-3.707-3.707-1.414 1.414 4.293 4.293h-3.172l-5.707-5.707-1.414 1.414 6.293 6.293h-3.172l-5.707-5.707-1.414 1.414 6.293 6.293h-3.172l-5.707-5.707-1.414 1.414 6.293 6.293h-3.172l-6.707-6.707a1 1 0 0 0 -.707-.293h-11v-12h9.586l-5.293 5.293a1 1 0 0 0 .707 1.707h8a1 1 0 0 0 .707-.293l3.707-3.707h6.253l3.733 2.8 1.2-1.6-4-3a1 1 0 0 0 -.6-.2h-7a1 1 0 0 0 -.707.293l-3.707 3.707h-5.172l7-7h12.424l8.846 2.948a1 1 0 0 0 .316.052h8zm6 4h-4v-18h4z"/><path d="m32 30a10 10 0 1 0 -10-10 10.011 10.011 0 0 0 10 10zm0-18a8 8 0 1 1 -8 8 8.009 8.009 0 0 1 8-8z"/><path d="m16 35h32a1 1 0 0 0 1-1v-19h5a1 1 0 0 0 .447-1.895l-22-11a1 1 0 0 0 -.894 0l-22 11a1 1 0 0 0 .447 1.895h5v19a1 1 0 0 0 1 1zm-1.764-22 17.764-8.882 17.764 8.882h-1.764a1 1 0 0 0 -1 1v19h-30v-19a1 1 0 0 0 -1-1z"/><path d="m30 25a1 1 0 0 0 .707-.293l8-8-1.414-1.414-7.293 7.293-3.293-3.293-1.414 1.414 4 4a1 1 0 0 0 .707.293z"/><path d="m24 29h-3v-6h-2v8h5z"/><path d="m40 31h5v-5h-2v3h-3z"/><path d="m43 22h2v2h-2z"/></svg>