<svg id="Capa_1" enable-background="new 0 0 512 512" height="512" viewBox="0 0 512 512" width="512" xmlns="http://www.w3.org/2000/svg"><g><g><path d="m412.428 105.277c-6.512-7.867-15.697-12.726-25.862-13.684l-228.175-21.497c-10.173-.954-20.098 2.101-27.964 8.612-6.236 5.161-10.573 12.007-12.583 19.686h-10.121c-21.079 0-38.229 17.149-38.229 38.229v337.147c0 21.08 17.15 38.229 38.229 38.229h229.184c10.047 0 19.195-3.902 26.025-10.262 14.159-4.523 25.001-17.129 26.481-32.837l31.625-335.661c.959-10.165-2.099-20.096-8.61-27.962zm-269.001-10.865c3.671-3.039 8.305-4.468 13.051-4.019l84.92 8.001h-101.512c.964-1.478 2.143-2.824 3.541-3.982zm-53.546 379.359v-337.148c0-9.838 8.004-17.843 17.842-17.843h229.184c9.838 0 17.842 8.004 17.842 17.843v337.147c0 9.838-8.004 17.843-17.842 17.843h-229.184c-9.838 0-17.842-8.004-17.842-17.842zm310.861-342.443-25.606 271.772v-266.477c0-10.358-4.147-19.76-10.859-26.652l20.375 1.92c4.745.447 9.032 2.715 12.071 6.386s4.466 8.306 4.019 13.051z"/><path d="m222.315 156.869c-51.106 0-92.684 41.578-92.684 92.684s41.578 92.684 92.684 92.684 92.684-41.578 92.684-92.684c.001-51.106-41.578-92.684-92.684-92.684zm80.197 86.569h-37.674c-.617-21.632-4.488-41.853-11.074-57.474-2.081-4.934-4.389-9.28-6.883-13.013 30.518 9.81 53.128 37.38 55.631 70.487zm-80.197 86.568c-13.744 0-28.981-30.229-30.286-74.336h60.573c-1.305 44.107-16.541 74.336-30.287 74.336zm-30.286-86.568c1.305-44.107 16.542-74.337 30.286-74.337 13.746 0 28.982 30.229 30.287 74.337zm5.722-70.488c-2.494 3.734-4.802 8.079-6.883 13.014-6.586 15.62-10.457 35.841-11.074 57.473h-37.674c2.503-33.106 25.113-60.677 55.631-70.487zm-55.631 82.72h37.674c.617 21.632 4.488 41.852 11.074 57.473 2.081 4.934 4.389 9.28 6.883 13.013-30.518-9.809-53.128-37.379-55.631-70.486zm104.76 70.487c2.494-3.734 4.802-8.079 6.883-13.013 6.586-15.621 10.457-35.841 11.074-57.473h37.674c-2.502 33.106-25.112 60.676-55.631 70.486z"/><path d="m298.716 400.12h-152.801c-5.629 0-10.193 4.564-10.193 10.193 0 5.63 4.564 10.193 10.193 10.193h152.801c5.629 0 10.193-4.564 10.193-10.193.001-5.629-4.563-10.193-10.193-10.193z"/><path d="m321.28 330.006c-3.378 0-6.116 2.738-6.116 6.116v15.446c0 3.378 2.738 6.116 6.116 6.116s6.116-2.738 6.116-6.116v-15.446c0-3.378-2.738-6.116-6.116-6.116z"/><path d="m283.553 376.522v-15.446c0-3.377-2.738-6.116-6.116-6.116s-6.116 2.739-6.116 6.116v15.446c0 3.378 2.738 6.116 6.116 6.116 3.377 0 6.116-2.738 6.116-6.116z"/><path d="m111.734 378.993c-.066 0-.13 0-.195-.002-5.629-.105-10.106-4.754-10-10.383.176-9.392.176-18.246 0-27.067-.113-5.628 4.359-10.282 9.987-10.395.07-.001.139-.002.208-.002 5.535 0 10.076 4.43 10.187 9.99.181 9.086.182 18.199 0 27.857-.104 5.563-4.647 10.002-10.187 10.002z"/><path d="m111.73 319.033c-5.629 0-10.193-4.564-10.193-10.193v-5.395c0-5.63 4.564-10.193 10.193-10.193s10.193 4.564 10.193 10.193v5.395c0 5.629-4.564 10.193-10.193 10.193z"/></g><g><path d="m461.344 2.495-8.373 23.544c-.358 1.008-1.068 1.807-1.964 2.21l-20.918 9.424c-2.955 1.332-2.955 6.04 0 7.372l20.918 9.424c.896.404 1.605 1.202 1.964 2.21l8.373 23.544c1.183 3.326 5.366 3.326 6.549 0l8.373-23.544c.358-1.008 1.068-1.807 1.964-2.21l20.918-9.424c2.955-1.332 2.955-6.04 0-7.372l-20.918-9.424c-.896-.404-1.605-1.202-1.964-2.21l-8.373-23.544c-1.183-3.327-5.366-3.327-6.549 0z"/><path d="m77.259 2.204-6.211 17.465c-.266.748-.792 1.34-1.457 1.64l-15.517 6.991c-2.192.988-2.192 4.48 0 5.468l15.517 6.991c.664.299 1.191.892 1.457 1.64l6.211 17.465c.877 2.467 3.98 2.467 4.858 0l6.211-17.465c.266-.748.792-1.34 1.457-1.64l15.517-6.991c2.192-.988 2.192-4.48 0-5.468l-15.517-6.991c-.664-.299-1.191-.892-1.457-1.64l-6.211-17.465c-.878-2.468-3.981-2.468-4.858 0z"/><ellipse cx="485.453" cy="281.103" rx="18.283" ry="18.283" transform="matrix(.982 -.189 .189 .982 -44.399 96.874)"/><circle cx="16.15" cy="118.106" r="7.887"/></g></g></svg>