<svg id="Layer_1" enable-background="new 0 0 500 500" viewBox="0 0 500 500" xmlns="http://www.w3.org/2000/svg"><g><path d="m387.109 229.449c-4.465-.013-8.055-3.622-8.043-8.064l.075-27.79c.013-4.433 3.61-8.021 8.043-8.021 4.463.013 8.054 3.623 8.041 8.064l-.075 27.79c-.012 4.433-3.608 8.021-8.041 8.021z"/><path d="m387.023 465.803c-.006 0-304.116-.232-304.116-.232-4.442-.007-8.039-3.606-8.036-8.049l.163-262.06c.003-4.439 3.603-8.036 8.043-8.036 4.445.002 8.045 3.606 8.041 8.048l-.157 254.019 288.025.219.047-64.721c.003-4.439 3.604-8.037 8.043-8.037 4.449.003 8.046 3.606 8.043 8.049l-.054 72.763c0 2.13-.851 4.178-2.359 5.686-1.507 1.503-3.553 2.351-5.683 2.351z"/><path d="m431.256 231.579c-1.573 0-3.141-.463-4.496-1.374l-191.863-129.353-191.865 129.354c-2.468 1.661-5.647 1.825-8.271.431-2.626-1.395-4.266-4.125-4.266-7.1v-38.189c-.003-9.446 4.671-18.246 12.506-23.53l187.363-126.315c2.658-1.791 6.408-1.791 9.066 0l187.365 126.316c7.838 5.287 12.513 14.084 12.504 23.537v38.182c0 2.975-1.64 5.704-4.266 7.1-1.185.629-2.482.941-3.777.941zm-196.359-179.734-182.905 123.312c-3.389 2.288-5.416 6.094-5.413 10.189v23.071l183.822-123.933c2.714-1.828 6.277-1.828 8.991 0l183.821 123.932v-23.068c.003-4.097-2.019-7.903-5.41-10.191z"/><path d="m33.043 465.84c-4.438 0-8.039-3.594-8.043-8.036-.002-4.442 3.594-8.043 8.037-8.048l419.93-.321c4.445 0 8.046 3.594 8.049 8.036.002 4.443-3.594 8.043-8.037 8.049l-419.93.32c-.003 0-.003 0-.006 0z"/><path d="m272.091 431.536h-149.606c-4.443 0-8.042-3.601-8.042-8.043s3.599-8.042 8.042-8.042h149.607c4.443 0 8.043 3.601 8.043 8.042-.001 4.442-3.601 8.043-8.044 8.043z"/><path d="m249.19 431.536h-19.521c-4.442 0-8.042-3.601-8.042-8.043s3.601-8.042 8.042-8.042h11.48v-96.438c0-26.011-21.164-47.175-47.18-47.175-26.014 0-47.179 21.164-47.179 47.175v70.034c0 4.442-3.601 8.041-8.042 8.041-4.442 0-8.043-3.6-8.043-8.041v-70.034c0-34.883 28.381-63.26 63.264-63.26s63.264 28.377 63.264 63.26v104.48c0 4.442-3.6 8.043-8.043 8.043z"/><path d="m429.453 408.737c-4.86 0-9.72-1.543-13.957-4.621l-16.741-12.163c-2.686-1.952-6.309-1.958-9.007.002l-16.735 12.161c-8.472 6.155-19.433 6.16-27.912 0s-11.865-16.581-8.63-26.549l6.393-19.678c1.031-3.167-.088-6.607-2.784-8.564l-16.738-12.161c-8.479-6.16-11.863-16.581-8.624-26.549 3.24-9.968 12.105-16.408 22.585-16.408h20.687c3.33 0 6.257-2.127 7.285-5.293l6.393-19.675c3.242-9.968 12.107-16.408 22.587-16.408 10.477 0 19.342 6.44 22.584 16.408l6.393 19.675c1.027 3.166 3.955 5.293 7.285 5.293h20.687c10.48 0 19.345 6.44 22.585 16.408 3.238 9.968-.148 20.389-8.628 26.549l-16.734 12.161c-2.696 1.956-3.815 5.397-2.784 8.564l6.394 19.678c3.235 9.968-.151 20.388-8.63 26.549-4.238 3.079-9.098 4.621-13.954 4.621zm-35.197-34.345c4.891 0 9.78 1.518 13.954 4.549l16.742 12.163c4.187 3.048 7.951.77 9.003 0 1.055-.769 4.379-3.653 2.783-8.567l-6.392-19.678c-3.19-9.811.279-20.48 8.626-26.546l16.735-12.161c4.181-3.035 3.188-7.323 2.786-8.567-.406-1.241-2.123-5.293-7.288-5.293h-20.687c-10.32 0-19.396-6.595-22.584-16.408l-6.393-19.675c-1.596-4.913-5.981-5.293-7.285-5.293-1.307 0-5.693.38-7.288 5.293l-6.394 19.675c-3.188 9.814-12.264 16.408-22.584 16.408h-20.687c-5.165 0-6.883 4.052-7.288 5.293-.402 1.245-1.395 5.532 2.784 8.567l16.737 12.161c8.346 6.066 11.815 16.734 8.626 26.546l-6.392 19.678c-1.596 4.914 1.728 7.798 2.783 8.567 1.059.767 4.829 3.038 9.004 0l16.739-12.163c4.173-3.032 9.068-4.549 13.96-4.549z"/><path d="m210.679 357.681h-16.71c-4.442 0-8.043-3.599-8.043-8.041 0-4.443 3.601-8.043 8.043-8.043h16.71c4.442 0 8.041 3.6 8.041 8.043 0 4.442-3.599 8.041-8.041 8.041z"/><path d="m277.014 234.597h-84.233c-4.442 0-8.042-3.6-8.042-8.041v-31.349c0-27.657 22.499-50.16 50.158-50.16 27.657 0 50.16 22.503 50.16 50.16v31.349c0 4.442-3.6 8.041-8.043 8.041zm-76.19-16.083h68.149v-23.307c0-18.789-15.287-34.076-34.076-34.076-18.79 0-34.073 15.287-34.073 34.076z"/><path d="m313.795 234.597h-157.599c-4.443 0-8.042-3.6-8.042-8.041 0-4.443 3.6-8.042 8.042-8.042h157.599c4.442 0 8.043 3.6 8.043 8.042s-3.601 8.041-8.043 8.041z"/></g></svg>