<svg id="Layer_1" enable-background="new 0 0 24 24" viewBox="0 0 24 24" xmlns="http://www.w3.org/2000/svg"><g><g style="fill:none;stroke:#000;stroke-width:.5;stroke-linecap:round;stroke-linejoin:round;stroke-miterlimit:10"><path d="m1.613 11.553c-.627-.257-1.071-.873-1.071-1.592 0-.509.224-.989.615-1.316l6.725-4.877c3.332 2.807 6.604 4.877 6.604 4.877.39.328.615.807.615 1.316 0 .719-.444 1.335-1.071 1.592h-12.417v8.285c0 .215.175.389.389.389h5.94c.014.002.028.004.041.004.004 0 .007-.004.011-.004h5.77c.007 0 .012.004.019.004h8.211c.215 0 .389-.175.389-.389v-8.947c.624-.192 1.075-.767 1.075-1.446 0-.388-.143-.743-.409-1.023l-4.028-4.376c-.074-.08-.178-.125-.286-.125l-10.853-.157"/><path d="m22.383 10.895h-7.562"/><path d="m14.029 11.553v8.679"/></g><g style="fill:none;stroke:#000;stroke-width:.5;stroke-linecap:round;stroke-linejoin:round;stroke-miterlimit:10"><circle cx="4.642" cy="15.248" r="1.491"/><path d="m6.133 15.248h6.587"/><path d="m10.065 15.247v1.35h.57"/><path d="m12.075 15.247v1.35h-.57"/><path d="m10.635 16.597c0-.24.19-.44.43-.44.25 0 .44.2.44.44"/></g><g stroke="#000" stroke-miterlimit="10" stroke-width=".1"><path d="m5.29 10.406c0 .01-.002.018-.005.025-.004.007-.011.013-.023.018s-.029.008-.05.011-.05.004-.086.004c-.031 0-.057-.001-.076-.004s-.038-.006-.05-.012c-.012-.005-.021-.013-.028-.022-.007-.01-.012-.022-.017-.036l-.214-.549c-.025-.062-.051-.119-.078-.172-.027-.052-.059-.097-.096-.134s-.081-.068-.131-.089-.111-.031-.182-.031h-.207v.991c0 .01-.003.018-.008.025s-.014.013-.025.017-.027.008-.047.011-.045.004-.075.004-.055-.002-.075-.004c-.02-.003-.036-.007-.048-.011s-.02-.01-.025-.017-.007-.016-.007-.025v-2.154c0-.047.012-.079.037-.098s.051-.028.078-.028h.495c.059 0 .108.002.147.004.039.003.074.006.105.01.09.016.169.04.238.074.07.033.127.076.174.127.047.052.082.111.105.177.023.067.035.14.035.22 0 .078-.011.148-.031.21s-.051.117-.091.164-.087.088-.142.123-.117.064-.185.088c.038.017.073.038.104.064s.06.057.087.093.053.077.077.124.048.1.072.158l.209.513c.017.043.028.073.032.091.005.017.007.03.007.04zm-.466-1.635c0-.091-.02-.168-.061-.231s-.109-.108-.205-.136c-.03-.008-.064-.014-.102-.018s-.087-.005-.148-.005h-.261v.784h.302c.082 0 .152-.01.211-.03.06-.019.11-.047.149-.082.04-.035.069-.077.087-.125.019-.048.028-.1.028-.157z"/><path d="m7.033 10.325c0 .022-.002.04-.004.057-.003.016-.007.03-.013.04-.006.011-.013.019-.021.023-.008.005-.016.007-.026.007h-1.116c-.028 0-.054-.009-.078-.028s-.037-.051-.037-.098v-2.074c0-.047.012-.079.037-.098s.051-.028.078-.028h1.104c.009 0 .018.002.026.007s.014.013.018.023c.005.011.009.024.012.04s.005.036.005.06c0 .022-.002.04-.005.057s-.007.029-.012.04c-.005.01-.011.018-.018.022-.008.005-.017.008-.026.008h-.91v.73h.781c.009 0 .018.003.026.008s.014.013.02.022c.006.01.009.023.012.04.001.017.003.037.003.059s-.002.04-.004.056-.006.028-.012.038c-.005.01-.012.016-.02.021-.007.004-.016.006-.025.006h-.781v.833h.922c.01 0 .018.002.026.007s.015.012.021.022.01.023.013.04c.002.016.004.036.004.06z"/><path d="m9.295 10.325c0 .024-.004.044-.012.061s-.018.031-.032.041c-.013.011-.027.019-.044.023-.016.005-.032.007-.048.007h-.102c-.032 0-.06-.003-.085-.01-.024-.007-.047-.019-.069-.036s-.043-.041-.065-.071-.045-.068-.069-.115l-.71-1.324c-.037-.068-.075-.14-.112-.215-.038-.073-.073-.146-.105-.217h-.004c.002.086.004.174.005.264s.002.179.002.268v1.404c0 .008-.003.016-.008.024s-.013.014-.025.018-.028.008-.048.011-.045.004-.075.004-.055-.002-.075-.004c-.02-.003-.035-.007-.046-.011-.012-.004-.02-.01-.025-.018s-.008-.016-.008-.024v-2.146c0-.048.014-.082.041-.103s.057-.031.089-.031h.152c.036 0 .066.003.09.009s.046.016.065.03.038.033.056.058.037.055.057.093l.546 1.021c.034.062.066.123.097.183.032.059.062.117.091.175s.058.114.086.17.057.112.084.168h.002c-.002-.095-.004-.193-.004-.296-.001-.102-.001-.201-.001-.296v-1.262c0-.008.003-.016.008-.023s.013-.013.025-.019.028-.009.048-.012c.019-.003.044-.004.076-.004.028 0 .052.001.072.004.02.002.036.006.047.012.012.005.02.012.025.019s.008.015.008.023z"/><path d="m11.372 8.259c0 .023-.001.043-.004.059-.002.017-.006.03-.012.04s-.012.018-.02.022c-.008.005-.016.007-.026.007h-.655v2.018c0 .01-.002.018-.007.025s-.013.013-.025.017-.028.008-.048.011-.045.004-.075.004c-.029 0-.053-.002-.074-.004-.02-.003-.036-.007-.049-.011-.012-.004-.02-.01-.025-.017s-.007-.016-.007-.025v-2.017h-.653c-.01 0-.018-.002-.026-.007s-.014-.012-.019-.022-.009-.024-.012-.04c-.002-.018-.004-.038-.004-.06s.002-.043.004-.06c.003-.017.007-.031.012-.042s.011-.019.019-.023c.008-.005.016-.007.026-.007h1.618c.01 0 .018.002.026.007s.014.013.02.023c.005.011.009.025.012.042s.004.037.004.06z"/></g><path d="m15.625 13.142h5.271v4.982h-5.271z" style="fill:none;stroke:#000;stroke-width:.5;stroke-linecap:round;stroke-linejoin:round;stroke-miterlimit:10"/><circle cx="4.642" cy="15.247" r=".553"/><g fill="none"><path d="m18.26 13.142s.177 1.926 2.635 2.491" stroke="#000" stroke-linecap="round" stroke-linejoin="round" stroke-miterlimit="10" stroke-width=".5"/><path d="m15.697 15.778s1.926-.177 2.491-2.635" stroke="#000" stroke-linecap="round" stroke-linejoin="round" stroke-miterlimit="10" stroke-width=".5"/><path d="m15.625 15.778h5.271" stroke="#000" stroke-linecap="round" stroke-linejoin="round" stroke-miterlimit="10" stroke-width=".5"/><path d="m18.188 15.778c-.035 0 0 2.347 0 2.347" stroke="#000" stroke-linecap="round" stroke-linejoin="round" stroke-miterlimit="10" stroke-width=".5"/></g></g></svg>