<svg id="Layer_1" enable-background="new 0 0 512 512" viewBox="0 0 512 512" xmlns="http://www.w3.org/2000/svg"><path d="m496.98 180.66c-.26-7.28-3.31-13.64-8.81-18.41l-42.87-37.14v-76.72c0-9.82-7.54-17.81-16.81-17.81h-24.21c-9.27 0-16.81 7.99-16.81 17.81v26.63l-67.59-58.55c-2.26-1.95-5.6-1.95-7.86 0l-150.6 130.46h-69.97v.01c-1.56 0-3.1.6-4.24 1.74l-70.45 70.45c-1.15 1.15-1.74 2.68-1.74 4.24h-.02v267.63c0 3.31 2.69 6 6 6h269.39c3.31 0 6-2.69 6-6v-25.96h9.3c2.87 0 5.33-2.03 5.89-4.84l3.29-16.71c3.43-1.15 6.78-2.54 10.02-4.16l14.15 9.49c2.38 1.6 5.56 1.29 7.58-.74l21.63-21.63c2.03-2.03 2.34-5.2.74-7.58l-9.49-14.15c1.62-3.24 3.01-6.59 4.16-10.02l16.71-3.29c2.81-.55 4.84-3.02 4.84-5.89v-30.6c0-2.87-2.03-5.33-4.84-5.89l-16.7-3.29c-.21-.64-.44-1.27-.67-1.9h51.31c17.09 0 31-13.91 31-31v-117.88l8.21 7.12c4.79 4.15 10.76 6.21 16.72 6.21 6.58 0 13.14-2.5 18.09-7.46l1.18-1.18c5.15-5.15 7.73-11.71 7.47-18.99zm-97.51-132.27c0-3.15 2.2-5.81 4.81-5.81h24.21c2.61 0 4.81 2.66 4.81 5.81v66.33l-33.83-29.31zm-314.02 119.02v49.97h-49.96zm198.94 317.59h-257.39v-255.62h64.45c3.31 0 6-2.69 6-6v-64.45h186.94v116.47h-9.3c-2.87 0-5.33 2.03-5.89 4.84l-3.29 16.71c-3.43 1.15-6.78 2.54-10.02 4.16l-14.15-9.49c-2.38-1.59-5.56-1.29-7.58.74l-21.63 21.63c-2.03 2.03-2.34 5.2-.74 7.58l9.49 14.15c-1.62 3.24-3.01 6.59-4.16 10.02l-16.7 3.29c-2.81.55-4.84 3.02-4.84 5.89v30.6c0 2.87 2.03 5.33 4.84 5.89l16.7 3.29c1.15 3.43 2.54 6.78 4.16 10.02l-9.49 14.15c-1.6 2.38-1.29 5.56.74 7.58l21.63 21.63c2.03 2.03 5.2 2.34 7.58.74l14.15-9.49c3.24 1.62 6.59 3.01 10.02 4.16l3.29 16.71c.55 2.81 3.02 4.84 5.89 4.84h9.3zm88.82-125.14v20.73l-15.38 3.03c-2.22.44-4 2.09-4.62 4.26-1.39 4.96-3.38 9.75-5.91 14.26-1.11 1.97-1.01 4.4.25 6.28l8.74 13.03-14.66 14.66-13.03-8.74c-1.88-1.26-4.31-1.35-6.28-.25-4.5 2.53-9.3 4.52-14.26 5.91-2.18.61-3.83 2.4-4.26 4.62l-3.03 15.38h-20.73l-3.03-15.38c-.44-2.22-2.09-4-4.26-4.62-4.96-1.39-9.75-3.38-14.26-5.91-1.97-1.11-4.4-1.01-6.28.25l-13.03 8.74-14.66-14.66 8.74-13.03c1.26-1.88 1.36-4.31.25-6.28-2.53-4.5-4.52-9.3-5.91-14.26-.61-2.18-2.4-3.83-4.62-4.26l-15.38-3.03v-20.73l15.38-3.03c2.22-.44 4.01-2.09 4.62-4.27 1.39-4.95 3.38-9.75 5.91-14.26 1.11-1.97 1.01-4.4-.25-6.28l-8.74-13.03 14.66-14.66 13.03 8.74c1.88 1.26 4.31 1.35 6.28.25 4.5-2.53 9.29-4.52 14.26-5.91 2.18-.61 3.83-2.4 4.26-4.62l3.03-15.38h20.73l3.03 15.38c.44 2.22 2.09 4 4.26 4.62 4.96 1.39 9.75 3.38 14.26 5.91 1.97 1.11 4.4 1.02 6.28-.25l13.03-8.74 14.66 14.66-8.74 13.03c-1.26 1.88-1.36 4.31-.25 6.28 2.53 4.5 4.52 9.3 5.91 14.26.61 2.18 2.4 3.83 4.62 4.26zm60.1-47.01c0 10.48-8.52 19-19 19h-52.2l6.89-10.27c1.6-2.38 1.29-5.56-.74-7.58l-21.63-21.63c-2.02-2.03-5.2-2.34-7.58-.74l-14.15 9.49c-3.24-1.62-6.59-3.01-10.02-4.16l-3.29-16.71c-.55-2.81-3.02-4.84-5.89-4.84h-9.3v-122.48c0-3.31-2.69-6-6-6h-48.34l73.91-64.03 117.35 101.66v128.29zm47.72-121.68-1.18 1.18c-5.01 5-13.12 5.3-18.47.66l-141.5-122.58c-2.26-1.95-5.6-1.95-7.86 0l-88.31 76.5h-43.96l136.2-117.99 164.36 142.39c3 2.6 4.53 5.8 4.67 9.77.15 3.96-1.15 7.26-3.95 10.07zm-190.64 131.71c-26.1 0-47.34 21.24-47.34 47.34s21.24 47.34 47.34 47.34 47.34-21.24 47.34-47.34-21.24-47.34-47.34-47.34zm0 82.68c-19.49 0-35.34-15.85-35.34-35.34s15.85-35.34 35.34-35.34 35.34 15.85 35.34 35.34-15.85 35.34-35.34 35.34zm-238.75-136.42c0-3.31 2.69-6 6-6h196.12c3.31 0 6 2.69 6 6s-2.69 6-6 6h-196.12c-3.32 0-6-2.68-6-6zm0 44.03c0-3.31 2.69-6 6-6h133.08c3.31 0 6 2.69 6 6s-2.69 6-6 6h-133.08c-3.32 0-6-2.69-6-6zm0 44.02c0-3.31 2.69-6 6-6h121.93c3.31 0 6 2.69 6 6s-2.69 6-6 6h-121.93c-3.32 0-6-2.69-6-6zm0 44.02c0-3.31 2.69-6 6-6h121.93c3.31 0 6 2.69 6 6s-2.69 6-6 6h-121.93c-3.32 0-6-2.68-6-6zm163.04 44.03c0 3.31-2.69 6-6 6h-151.04c-3.31 0-6-2.69-6-6s2.69-6 6-6h151.04c3.31 0 6 2.68 6 6zm-92.59-234.2c0-3.31 2.69-6 6-6h125.66c3.31 0 6 2.69 6 6s-2.69 6-6 6h-125.66c-3.31 0-6-2.69-6-6z"/></svg>