<?xml version="1.0" encoding="UTF-8"?>
<svg xmlns="http://www.w3.org/2000/svg" xmlns:xlink="http://www.w3.org/1999/xlink" version="1.1" id="Capa_1" x="0px" y="0px" viewBox="0 0 512 512" style="enable-background:new 0 0 512 512;" xml:space="preserve" width="512" height="512">
<g>
	
		<polyline style="fill:none;stroke:#000000;stroke-width:15;stroke-linecap:round;stroke-linejoin:round;stroke-miterlimit:10;" points="&#10;&#9;&#9;209.679,351.31 209.679,242.02 302.319,242.02 302.319,367.86 &#9;"/>
	
		<line style="fill:none;stroke:#000000;stroke-width:15;stroke-linecap:round;stroke-linejoin:round;stroke-miterlimit:10;" x1="101.603" y1="367.56" x2="101.603" y2="163.736"/>
	
		<line style="fill:none;stroke:#000000;stroke-width:15;stroke-linecap:round;stroke-linejoin:round;stroke-miterlimit:10;" x1="410.396" y1="225.779" x2="410.396" y2="163.756"/>
	
		<line style="fill:none;stroke:#000000;stroke-width:15;stroke-linecap:round;stroke-linejoin:round;stroke-miterlimit:10;" x1="410.396" y1="360.154" x2="410.396" y2="258.267"/>
	<path style="fill:none;stroke:#000000;stroke-width:15;stroke-linecap:round;stroke-linejoin:round;stroke-miterlimit:10;" d="&#10;&#9;&#9;M231.813,426.802h95.962c12.477,0,24.756-9.168,28.31-21.219"/>
	<path style="fill:none;stroke:#000000;stroke-width:15;stroke-linecap:round;stroke-linejoin:round;stroke-miterlimit:10;" d="&#10;&#9;&#9;M70.827,483.423h39.294l55.85,16.791c9.444,2.843,19.266,4.285,29.128,4.285h121.829c12.178,0,23.948-4.424,33.104-12.446&#10;&#9;&#9;l127.804-111.928c11.355-9.936,13.198-28.612,3.35-40.61c-10.329-12.605-28.959-14.355-41.455-3.897l-83.645,69.966&#10;&#9;&#9;c0.85-2.828,1.269-5.838,1.207-8.956c-0.32-16.079-13.848-28.771-29.93-28.771h-75.371c-12.486,0-24.744-3.867-34.685-11.422&#10;&#9;&#9;c-13.202-10.031-29.665-15.995-47.529-15.995c-19.925,0-38.116,7.418-51.974,19.638c-5.657,4.988-12.915,7.78-20.457,7.78H70.827"/>
	
		<polyline style="fill:none;stroke:#000000;stroke-width:15;stroke-linecap:round;stroke-linejoin:round;stroke-miterlimit:10;" points="&#10;&#9;&#9;24.419,443.053 24.419,504.5 70.825,504.5 70.825,350.103 24.419,350.103 24.419,410.556 &#9;"/>
	
		<polyline style="fill:none;stroke:#000000;stroke-width:15;stroke-linecap:round;stroke-linejoin:round;stroke-miterlimit:10;" points="&#10;&#9;&#9;356.326,81.87 356.326,41.3 406.479,41.3 406.479,121.158 &#9;"/>
	
		<rect x="333.198" y="242.022" style="fill:none;stroke:#000000;stroke-width:15;stroke-linecap:round;stroke-linejoin:round;stroke-miterlimit:10;" width="48.203" height="61.759"/>
	
		<rect x="132.481" y="242.022" style="fill:none;stroke:#000000;stroke-width:15;stroke-linecap:round;stroke-linejoin:round;stroke-miterlimit:10;" width="48.203" height="61.759"/>
	
		<rect x="343.781" y="10.425" style="fill:none;stroke:#000000;stroke-width:15;stroke-linecap:round;stroke-linejoin:round;stroke-miterlimit:10;" width="75.241" height="30.88"/>
	
		<rect x="209.68" y="118.503" style="fill:none;stroke:#000000;stroke-width:15;stroke-linecap:round;stroke-linejoin:round;stroke-miterlimit:10;" width="92.639" height="75.338"/>
	
		<line style="fill:none;stroke:#000000;stroke-width:15;stroke-linecap:round;stroke-linejoin:round;stroke-miterlimit:10;" x1="255.999" y1="118.503" x2="255.999" y2="193.841"/>
	
		<line style="fill:none;stroke:#000000;stroke-width:15;stroke-linecap:round;stroke-linejoin:round;stroke-miterlimit:10;" x1="302.319" y1="156.172" x2="209.68" y2="156.172"/>
	<g>
		<path style="fill:none;stroke:#000000;stroke-width:15;stroke-linecap:round;stroke-linejoin:round;stroke-miterlimit:10;" d="&#10;&#9;&#9;&#9;M164.172,75.209l82.234-64.399c5.637-4.414,13.55-4.414,19.187,0l200.713,157.2c6.77,5.299,7.953,15.081,2.664,21.841&#10;&#9;&#9;&#9;c-3.072,3.927-12.258,9.076-21.851,2.664L255.999,42.821L64.85,192.516c-6.76,5.299-16.542,4.106-21.841-2.664&#10;&#9;&#9;&#9;c-5.299-6.76-4.106-16.542,2.654-21.841l92.92-72.77"/>
	</g>
</g>















</svg>
