<svg id="Layer_1" viewBox="0 0 64 64" xmlns="http://www.w3.org/2000/svg" data-name="Layer 1"><path d="m30.659 46.288a1.2 1.2 0 0 1 -1.2-1.2 1 1 0 1 0 -2 0 3.2 3.2 0 1 0 3.2-3.2 1.2 1.2 0 1 1 1.2-1.2 1 1 0 0 0 2 0 3.2 3.2 0 1 0 -3.2 3.2 1.2 1.2 0 1 1 0 2.4z"/><path d="m35.74 48.173a1 1 0 0 0 1-1v-2.535h2.814v2.535a1 1 0 0 0 2 0v-7.34a2.2 2.2 0 0 0 -2.167-2.23h-2.48a2.2 2.2 0 0 0 -2.167 2.23v7.34a1 1 0 0 0 1 1zm1.167-8.57h2.48a.21.21 0 0 1 .167.23v2.805h-2.814v-2.8a.21.21 0 0 1 .167-.238z"/><path d="m43.184 48.173h4.816a1 1 0 0 0 0-2h-3.816v-7.133a1 1 0 1 0 -2 0v8.133a1 1 0 0 0 1 1z"/><path d="m50.327 48.173h4.194a1 1 0 0 0 0-2h-3.194v-2.067h2.72a1 1 0 0 0 0-2h-2.72v-2.066h3.194a1 1 0 0 0 0-2h-4.194a1 1 0 0 0 -1 1v8.133a1 1 0 0 0 1 1z"/><path d="m61 33.938h-3.464v-25.355a4.106 4.106 0 0 0 -4.1-4.1h-47.336a4.106 4.106 0 0 0 -4.1 4.1v34.53a4.111 4.111 0 0 0 4.1 4.111h1.746a1.983 1.983 0 0 1 1.981 1.981v9.314a1 1 0 0 0 .571.9 1.013 1.013 0 0 0 .429.1 1 1 0 0 0 .631-.225l9.708-7.907a.981.981 0 0 0 .813.451h39.021a1 1 0 0 0 1-1v-15.9a1 1 0 0 0 -1-1zm-53.154 11.286h-1.746a2.109 2.109 0 0 1 -2.1-2.111v-34.53a2.1 2.1 0 0 1 2.1-2.1h47.335a2.1 2.1 0 0 1 2.1 2.1v25.355h-11.992v-3.822a3.487 3.487 0 0 0 3.3-.9 3.434 3.434 0 0 0 -.087-4.848l-14.612-14.1a3.415 3.415 0 0 0 -4.76 0l-14.613 14.1a3.43 3.43 0 0 0 2.321 5.9h.063a3.37 3.37 0 0 0 .834-.116v9.737a1 1 0 0 0 1 1h3.986v8.071l-9.152 7.454v-7.209a3.986 3.986 0 0 0 -3.977-3.981zm24.2-11.286h-4.555v-1.4a2.277 2.277 0 0 1 4.554 0zm-2.277-5.679a4.281 4.281 0 0 0 -4.277 4.276v1.4h-3.513a1 1 0 0 0 -1 1v3.945h-2.986v-10.021l11.776-11.359 11.774 11.36v5.078h-7.5v-1.4a4.281 4.281 0 0 0 -4.275-4.279zm13.62-.4-.121-.116a.467.467 0 0 0 -.045-.044l-12.76-12.31a1 1 0 0 0 -1.389 0l-12.927 12.472a1.347 1.347 0 0 1 -1.016.4 1.428 1.428 0 0 1 -.966-2.456l14.612-14.1a1.424 1.424 0 0 1 1.983 0l14.611 14.1a1.43 1.43 0 0 1 .037 2.019 1.463 1.463 0 0 1 -2.02.036zm16.611 21.979h-37.021v-13.9h37.021z"/><path d="m6.419 10.258a1 1 0 0 0 -1 1v1.484a1 1 0 0 0 2 0v-1.484a1 1 0 0 0 -1-1z"/><path d="m6.419 14.839a1 1 0 0 0 -1 1v7.161a1 1 0 0 0 2 0v-7.161a1 1 0 0 0 -1-1z"/></svg>