<svg width="490" height="490" viewBox="0 0 490 490" fill="none" xmlns="http://www.w3.org/2000/svg">
<path d="M70 385H105V420H70V385Z" fill="#A0B0AB"/>
<path d="M166.25 297.5H201.25V332.5H166.25V297.5Z" fill="#A0B0AB"/>
<path d="M166.25 385H201.25V420H166.25V385Z" fill="#A0B0AB"/>
<path d="M463.75 166.25H8.75C6.42936 166.25 4.20376 167.172 2.56282 168.813C0.921874 170.454 0 172.679 0 175V428.75C0 440.353 4.60936 451.481 12.8141 459.686C21.0188 467.891 32.1468 472.5 43.75 472.5H287.175C274.213 460.515 263.804 446.035 256.572 429.93C249.34 413.825 245.434 396.426 245.089 378.775C244.744 361.124 247.965 343.586 254.561 327.21C261.158 310.834 270.992 295.959 283.475 283.475C295.959 270.992 310.834 261.158 327.21 254.561C343.586 247.965 361.124 244.744 378.775 245.089C396.426 245.434 413.825 249.34 429.93 256.572C446.035 263.804 460.515 274.213 472.5 287.175V175C472.5 172.679 471.578 170.454 469.937 168.813C468.296 167.172 466.071 166.25 463.75 166.25ZM59.4125 211.837C57.7648 210.19 56.8392 207.955 56.8392 205.625C56.8392 203.295 57.7648 201.06 59.4125 199.413C61.0602 197.765 63.2949 196.839 65.625 196.839C67.9551 196.839 70.1898 197.765 71.8375 199.413L87.5 215.163L103.162 199.413C104.81 197.765 107.045 196.839 109.375 196.839C111.705 196.839 113.94 197.765 115.587 199.413C117.235 201.06 118.161 203.295 118.161 205.625C118.161 207.955 117.235 210.19 115.587 211.837L99.8375 227.5L115.587 243.163C117.227 244.815 118.147 247.048 118.147 249.375C118.147 251.702 117.227 253.935 115.587 255.587C113.929 257.214 111.698 258.125 109.375 258.125C107.052 258.125 104.821 257.214 103.162 255.587L87.5 239.837L71.8375 255.587C70.1788 257.214 67.9482 258.125 65.625 258.125C63.3018 258.125 61.0712 257.214 59.4125 255.587C57.7732 253.935 56.8533 251.702 56.8533 249.375C56.8533 247.048 57.7732 244.815 59.4125 243.163L75.1625 227.5L59.4125 211.837ZM122.5 428.75C122.5 431.071 121.578 433.296 119.937 434.937C118.296 436.578 116.071 437.5 113.75 437.5H61.25C58.9294 437.5 56.7038 436.578 55.0628 434.937C53.4219 433.296 52.5 431.071 52.5 428.75V376.25C52.5 373.929 53.4219 371.704 55.0628 370.063C56.7038 368.422 58.9294 367.5 61.25 367.5H113.75C116.071 367.5 118.296 368.422 119.937 370.063C121.578 371.704 122.5 373.929 122.5 376.25V428.75ZM122.5 341.25C122.5 343.571 121.578 345.796 119.937 347.437C118.296 349.078 116.071 350 113.75 350H61.25C58.9294 350 56.7038 349.078 55.0628 347.437C53.4219 345.796 52.5 343.571 52.5 341.25V288.75C52.5 286.429 53.4219 284.204 55.0628 282.563C56.7038 280.922 58.9294 280 61.25 280H113.75C116.071 280 118.296 280.922 119.937 282.563C121.578 284.204 122.5 286.429 122.5 288.75V341.25ZM218.75 428.75C218.75 431.071 217.828 433.296 216.187 434.937C214.546 436.578 212.321 437.5 210 437.5H157.5C155.179 437.5 152.954 436.578 151.313 434.937C149.672 433.296 148.75 431.071 148.75 428.75V376.25C148.75 373.929 149.672 371.704 151.313 370.063C152.954 368.422 155.179 367.5 157.5 367.5H210C212.321 367.5 214.546 368.422 216.187 370.063C217.828 371.704 218.75 373.929 218.75 376.25V428.75ZM218.75 341.25C218.75 343.571 217.828 345.796 216.187 347.437C214.546 349.078 212.321 350 210 350H157.5C155.179 350 152.954 349.078 151.313 347.437C149.672 345.796 148.75 343.571 148.75 341.25V288.75C148.75 286.429 149.672 284.204 151.313 282.563C152.954 280.922 155.179 280 157.5 280H210C212.321 280 214.546 280.922 216.187 282.563C217.828 284.204 218.75 286.429 218.75 288.75V341.25ZM218.75 253.75C218.75 256.071 217.828 258.296 216.187 259.937C214.546 261.578 212.321 262.5 210 262.5H157.5C155.179 262.5 152.954 261.578 151.313 259.937C149.672 258.296 148.75 256.071 148.75 253.75V201.25C148.75 198.929 149.672 196.704 151.313 195.063C152.954 193.422 155.179 192.5 157.5 192.5H210C212.321 192.5 214.546 193.422 216.187 195.063C217.828 196.704 218.75 198.929 218.75 201.25V253.75Z" fill="#A0B0AB"/>
<path d="M70 297.5H105V332.5H70V297.5Z" fill="#A0B0AB"/>
<path d="M166.25 210H201.25V245H166.25V210Z" fill="#A0B0AB"/>
<path d="M175 96.25C172.679 96.25 170.454 95.3281 168.813 93.6872C167.172 92.0462 166.25 89.8206 166.25 87.5V35C166.25 25.7174 169.937 16.815 176.501 10.2513C183.065 3.68749 191.967 0 201.25 0C210.533 0 219.435 3.68749 225.999 10.2513C232.563 16.815 236.25 25.7174 236.25 35V43.75C236.25 46.0706 235.328 48.2962 233.687 49.9372C232.046 51.5781 229.821 52.5 227.5 52.5C225.179 52.5 222.954 51.5781 221.313 49.9372C219.672 48.2962 218.75 46.0706 218.75 43.75V35C218.75 30.3587 216.906 25.9075 213.624 22.6256C210.342 19.3437 205.891 17.5 201.25 17.5C196.609 17.5 192.158 19.3437 188.876 22.6256C185.594 25.9075 183.75 30.3587 183.75 35V87.5C183.75 89.8206 182.828 92.0462 181.187 93.6872C179.546 95.3281 177.321 96.25 175 96.25Z" fill="#A0B0AB"/>
<path d="M78.75 96.25C76.4294 96.25 74.2038 95.3281 72.5628 93.6872C70.9219 92.0462 70 89.8206 70 87.5V35C70 25.7174 73.6875 16.815 80.2513 10.2513C86.815 3.68749 95.7174 0 105 0C114.283 0 123.185 3.68749 129.749 10.2513C136.313 16.815 140 25.7174 140 35V43.75C140 46.0706 139.078 48.2962 137.437 49.9372C135.796 51.5781 133.571 52.5 131.25 52.5C128.929 52.5 126.704 51.5781 125.063 49.9372C123.422 48.2962 122.5 46.0706 122.5 43.75V35C122.5 30.3587 120.656 25.9075 117.374 22.6256C114.092 19.3437 109.641 17.5 105 17.5C100.359 17.5 95.9075 19.3437 92.6256 22.6256C89.3437 25.9075 87.5 30.3587 87.5 35V87.5C87.5 89.8206 86.5781 92.0462 84.9372 93.6872C83.2962 95.3281 81.0706 96.25 78.75 96.25Z" fill="#A0B0AB"/>
<path d="M78.75 113.75C88.415 113.75 96.25 105.915 96.25 96.25C96.25 86.585 88.415 78.75 78.75 78.75C69.085 78.75 61.25 86.585 61.25 96.25C61.25 105.915 69.085 113.75 78.75 113.75Z" fill="#A0B0AB"/>
<path d="M175 113.75C184.665 113.75 192.5 105.915 192.5 96.25C192.5 86.585 184.665 78.75 175 78.75C165.335 78.75 157.5 86.585 157.5 96.25C157.5 105.915 165.335 113.75 175 113.75Z" fill="#A0B0AB"/>
<path d="M271.25 96.25C268.929 96.25 266.704 95.3281 265.063 93.6872C263.422 92.0462 262.5 89.8206 262.5 87.5V35C262.5 25.7174 266.187 16.815 272.751 10.2513C279.315 3.68749 288.217 0 297.5 0C306.783 0 315.685 3.68749 322.249 10.2513C328.813 16.815 332.5 25.7174 332.5 35V43.75C332.5 46.0706 331.578 48.2962 329.937 49.9372C328.296 51.5781 326.071 52.5 323.75 52.5C321.429 52.5 319.204 51.5781 317.563 49.9372C315.922 48.2962 315 46.0706 315 43.75V35C315 30.3587 313.156 25.9075 309.874 22.6256C306.592 19.3437 302.141 17.5 297.5 17.5C292.859 17.5 288.408 19.3437 285.126 22.6256C281.844 25.9075 280 30.3587 280 35V87.5C280 89.8206 279.078 92.0462 277.437 93.6872C275.796 95.3281 273.571 96.25 271.25 96.25Z" fill="#A0B0AB"/>
<path d="M271.25 113.75C280.915 113.75 288.75 105.915 288.75 96.25C288.75 86.585 280.915 78.75 271.25 78.75C261.585 78.75 253.75 86.585 253.75 96.25C253.75 105.915 261.585 113.75 271.25 113.75Z" fill="#A0B0AB"/>
<path d="M367.5 96.25C365.179 96.25 362.954 95.3281 361.313 93.6872C359.672 92.0462 358.75 89.8206 358.75 87.5V35C358.75 25.7174 362.437 16.815 369.001 10.2513C375.565 3.68749 384.467 0 393.75 0C403.033 0 411.935 3.68749 418.499 10.2513C425.063 16.815 428.75 25.7174 428.75 35V43.75C428.75 46.0706 427.828 48.2962 426.187 49.9372C424.546 51.5781 422.321 52.5 420 52.5C417.679 52.5 415.454 51.5781 413.813 49.9372C412.172 48.2962 411.25 46.0706 411.25 43.75V35C411.25 30.3587 409.406 25.9075 406.124 22.6256C402.842 19.3437 398.391 17.5 393.75 17.5C389.109 17.5 384.658 19.3437 381.376 22.6256C378.094 25.9075 376.25 30.3587 376.25 35V87.5C376.25 89.8206 375.328 92.0462 373.687 93.6872C372.046 95.3281 369.821 96.25 367.5 96.25Z" fill="#A0B0AB"/>
<path d="M367.5 113.75C377.165 113.75 385 105.915 385 96.25C385 86.585 377.165 78.75 367.5 78.75C357.835 78.75 350 86.585 350 96.25C350 105.915 357.835 113.75 367.5 113.75Z" fill="#A0B0AB"/>
<path d="M428.75 35H43.75C32.1468 35 21.0188 39.6094 12.8141 47.8141C4.60936 56.0188 0 67.1468 0 78.75V131.25C0 133.571 0.921874 135.796 2.56282 137.437C4.20376 139.078 6.42936 140 8.75 140H463.75C466.071 140 468.296 139.078 469.937 137.437C471.578 135.796 472.5 133.571 472.5 131.25V78.75C472.5 67.1468 467.891 56.0188 459.686 47.8141C451.481 39.6094 440.353 35 428.75 35ZM17.5 122.5V78.75C17.5208 71.7945 20.2931 65.1297 25.2114 60.2114C30.1297 55.2931 36.7945 52.5208 43.75 52.5H428.75C435.706 52.5208 442.37 55.2931 447.289 60.2114C452.207 65.1297 454.979 71.7945 455 78.75V122.5H17.5Z" fill="#A0B0AB"/>
<path d="M376.25 262.5C353.752 262.5 331.76 269.171 313.054 281.67C294.348 294.169 279.768 311.935 271.159 332.72C262.549 353.505 260.297 376.376 264.686 398.442C269.075 420.507 279.908 440.775 295.817 456.683C311.725 472.592 331.993 483.425 354.059 487.814C376.124 492.203 398.995 489.951 419.78 481.341C440.565 472.732 458.331 458.152 470.83 439.446C483.329 420.74 490 398.748 490 376.25C489.972 346.09 477.979 317.174 456.653 295.847C435.326 274.521 406.41 262.528 376.25 262.5ZM384.388 423.763V433.125C384.388 435.283 383.53 437.353 382.004 438.879C380.478 440.405 378.408 441.263 376.25 441.263C374.092 441.263 372.022 440.405 370.496 438.879C368.97 437.353 368.113 435.283 368.113 433.125V423.763C363.179 422.296 358.735 419.52 355.253 415.73C351.771 411.94 349.381 407.277 348.338 402.238C347.984 400.145 348.459 397.998 349.66 396.249C350.862 394.5 352.697 393.287 354.776 392.867C356.856 392.446 359.018 392.851 360.805 393.996C362.591 395.14 363.863 396.935 364.35 399C364.815 401.251 365.909 403.324 367.505 404.978C369.1 406.633 371.132 407.801 373.365 408.347C375.598 408.893 377.94 408.795 380.119 408.064C382.298 407.332 384.225 405.998 385.677 404.216C387.128 402.434 388.044 400.276 388.319 397.994C388.594 395.712 388.216 393.399 387.229 391.323C386.242 389.247 384.687 387.494 382.743 386.266C380.8 385.038 378.549 384.387 376.25 384.388C369.425 384.387 362.828 381.931 357.665 377.468C352.502 373.005 349.117 366.833 348.129 360.08C347.142 353.326 348.618 346.443 352.287 340.689C355.956 334.934 361.573 330.692 368.113 328.737V319.375C368.113 317.217 368.97 315.147 370.496 313.621C372.022 312.095 374.092 311.237 376.25 311.237C378.408 311.237 380.478 312.095 382.004 313.621C383.53 315.147 384.388 317.217 384.388 319.375V328.737C389.321 330.204 393.765 332.98 397.247 336.77C400.729 340.56 403.119 345.223 404.163 350.262C404.516 352.355 404.041 354.502 402.84 356.251C401.638 358 399.804 359.213 397.724 359.633C395.644 360.054 393.482 359.649 391.695 358.504C389.909 357.36 388.637 355.565 388.15 353.5C387.685 351.249 386.591 349.176 384.996 347.522C383.4 345.867 381.368 344.699 379.135 344.153C376.902 343.607 374.56 343.705 372.381 344.436C370.202 345.168 368.275 346.502 366.824 348.284C365.372 350.066 364.456 352.224 364.181 354.506C363.906 356.788 364.284 359.101 365.271 361.177C366.258 363.253 367.813 365.006 369.757 366.234C371.7 367.462 373.952 368.113 376.25 368.112C383.075 368.113 389.672 370.569 394.835 375.032C399.999 379.495 403.383 385.667 404.371 392.42C405.358 399.174 403.883 406.057 400.213 411.811C396.544 417.566 390.927 421.808 384.388 423.763Z" fill="#A0B0AB"/>
</svg>
