<svg width="164" height="289" viewBox="0 0 164 289" fill="none" xmlns="http://www.w3.org/2000/svg">
<path d="M158.812 259.875H154V235.812C154 233.166 151.834 231 149.188 231H139.562V192.5C139.562 189.853 137.397 187.688 134.75 187.688H125.125V149.188C125.125 146.541 122.959 144.375 120.312 144.375H110.688V91.4375C110.688 88.7906 108.522 86.625 105.875 86.625H101.062V62.5625C101.062 59.9156 98.8969 57.75 96.25 57.75V24.0625C96.25 21.4156 94.0844 19.25 91.4375 19.25H86.625V0H77V19.25H72.1875C69.5406 19.25 67.375 21.4156 67.375 24.0625V57.75H62.5625C59.9156 57.75 57.75 59.9156 57.75 62.5625V105.875H52.9375C50.2906 105.875 48.125 108.041 48.125 110.688V163.625H38.5C35.8531 163.625 33.6875 165.791 33.6875 168.438V192.5H24.0625C21.4156 192.5 19.25 194.666 19.25 197.312V235.812H4.8125C2.16562 235.812 0 237.978 0 240.625V283.938C0 286.584 2.16562 288.75 4.8125 288.75H158.812C161.459 288.75 163.625 286.584 163.625 283.938V264.688C163.625 262.041 161.459 259.875 158.812 259.875ZM77 28.875H86.625V57.75H77V28.875ZM67.375 67.375H91.4375V72.1875H72.1875V81.8125H91.4375V86.625H77C74.3531 86.625 72.1875 88.7906 72.1875 91.4375V105.875H67.375V67.375ZM28.875 279.125H9.625V274.312H24.0625V264.688H9.625V259.875H24.0625V250.25H9.625V245.438H28.875V279.125ZM43.3125 279.125H38.5V240.625C38.5 237.978 36.3344 235.812 33.6875 235.812H28.875V231H38.5V221.375H28.875V216.562H38.5V206.938H28.875V202.125H43.3125V279.125ZM57.75 279.125H52.9375V197.312C52.9375 194.666 50.7719 192.5 48.125 192.5H43.3125V187.688H52.9375V178.062H43.3125V173.25H57.75V279.125ZM72.1875 279.125H67.375V168.438C67.375 165.791 65.2094 163.625 62.5625 163.625H57.75V158.812H67.375V149.188H57.75V144.375H67.375V134.75H57.75V129.938H67.375V120.312H57.75V115.5H72.1875V279.125ZM91.4375 149.188V279.125H81.8125V96.25H101.062V101.062H86.625V110.688H101.062V115.5H86.625V125.125H101.062V129.938H86.625V139.562H101.062V144.375H96.25C93.6031 144.375 91.4375 146.541 91.4375 149.188ZM105.875 192.5V279.125H101.062V154H115.5V158.812H105.875V168.438H115.5V173.25H105.875V182.875H115.5V187.688H110.688C108.041 187.688 105.875 189.853 105.875 192.5ZM120.312 235.812V279.125H115.5V197.312H129.938V202.125H120.312V211.75H129.938V216.562H120.312V226.188H129.938V231H125.125C122.478 231 120.312 233.166 120.312 235.812ZM134.75 264.688V279.125H129.938V240.625H144.375V245.438H134.75V255.062H144.375V259.875H139.562C136.916 259.875 134.75 262.041 134.75 264.688ZM154 279.125H144.375V269.5H154V279.125Z" fill="#A0B0AB"/>
</svg>
