<svg width="232" height="225" viewBox="0 0 232 225" fill="none" xmlns="http://www.w3.org/2000/svg">
<path d="M226.763 181.423C220.483 183.425 214.521 186.383 209.197 190.251C204.237 193.573 196.227 197.078 191.858 193.164C185.624 187.521 197.911 173.55 197.911 158.988C197.865 147.702 189.947 139.465 176.113 136.416C172.427 135.642 169.013 133.958 166.192 131.41C167.921 126.677 168.285 121.535 167.284 116.574C173.974 109.612 184.896 109.293 196.227 96.8694C226.262 113.389 239.323 149.613 226.763 181.423ZM161.96 88.3594C171.061 88.1774 180.117 89.8612 188.582 93.2743C179.253 102.285 171.88 102.603 164.736 108.155L159.093 91.2719L161.96 88.3594ZM152.585 69.9743C155.27 67.2893 155.816 66.3791 157.409 66.3336C158.774 66.2426 158.956 66.7887 163.78 71.6125C164.736 72.7502 164.645 74.434 163.507 75.4352L156.226 82.7164L152.085 70.2928C152.267 70.2018 152.403 70.1108 152.585 69.9743ZM99.7506 11.7243C100.297 11.1782 101.025 10.8141 101.844 10.8141C102.481 10.7686 103.118 11.0416 103.619 11.4512L108.261 16.093C109.216 17.2307 109.125 18.9145 107.988 19.9157L106.895 21.0078L94.0166 17.5037L99.7506 11.7243ZM69.943 52.4537C69.7609 52.4537 69.6244 52.4993 69.4879 52.5448C68.8508 52.7268 68.1227 52.5448 67.6221 52.0442C67.167 51.5436 66.985 50.861 67.1215 50.1784C67.167 50.0418 67.167 49.8598 67.2125 49.7233C67.6221 48.176 68.1227 46.6743 68.8053 45.218L77.2242 49.4502C74.9943 50.77 72.5369 51.8166 69.943 52.4537ZM117.499 75.2077C103.846 88.86 93.7891 95.3676 75.859 108.201C73.4016 109.93 72.3094 112.979 73.0375 115.892L76.5871 130.045L74.0842 132.548L42.7293 101.193L45.2322 98.6897L59.3852 102.239C62.2977 102.967 65.3467 101.83 67.076 99.4178C79.7727 81.6243 86.4623 71.3395 100.069 57.7782C100.979 56.868 101.389 55.5483 101.207 54.3196C100.979 53.0453 100.206 51.9532 99.0225 51.3616L39.1797 21.3719C43.958 16.184 51.2393 14.0907 58.0654 15.9565L120.457 33.0219C122.55 33.568 124.78 32.9764 126.282 31.4746L143.939 13.8176C158.547 -0.744887 170.151 -0.562856 174.884 0.3473C175.43 3.48734 176.067 15.0463 161.277 31.4291C153.632 39.8936 143.893 49.7233 141.117 52.5448C139.524 54.1375 138.933 56.5494 139.661 58.6883L159.184 117.211C161.05 124.038 158.956 131.273 153.768 136.097L123.87 76.2543C123.278 75.1166 122.186 74.2975 120.912 74.07C119.683 73.8424 118.409 74.252 117.499 75.2077ZM125.781 97.9616L130.013 106.381C128.421 107.154 126.737 107.7 125.007 108.064C124.325 108.246 123.642 108.064 123.142 107.564C122.641 107.063 122.459 106.381 122.641 105.698C123.278 102.967 124.325 100.373 125.781 97.9616ZM97.1111 139.738C99.8416 144.653 104.119 148.566 109.307 150.751C118.136 154.391 129.695 153.072 129.058 160.398C128.512 164.539 127.328 168.544 125.599 172.367C120.775 184.699 121.094 188.067 122.505 196.486C123.733 201.31 123.688 206.407 122.277 211.231C100.115 194.757 90.1484 166.496 97.1111 139.738ZM153.177 224.155C162.005 218.239 171.516 215.235 188.127 216.464C190.266 216.646 192.405 216.919 194.498 217.283C181.801 223.882 167.33 226.294 153.177 224.155ZM204.055 211.322C191.449 207.635 178.07 207.135 165.236 209.956C156.999 212.141 149.4 216.191 143.029 221.834C138.296 220.378 133.699 218.375 129.422 215.872C131.697 209.183 132.061 201.992 130.468 195.121C129.285 188.113 128.876 186.065 133.108 175.279C135.11 170.774 136.475 165.95 137.067 161.081C137.659 155.392 134.382 150.022 129.058 147.929C123.096 145.29 117.271 145.335 112.356 143.333C106.44 140.329 102.254 134.732 101.161 128.179C103.983 121.944 107.76 116.165 112.356 111.068C113.175 110.158 114.086 109.339 114.95 108.474C115.36 110.249 116.224 111.932 117.499 113.252C122.004 117.757 127.965 116.21 133.608 113.571L147.079 140.557C148.125 142.65 150.128 144.106 152.449 144.471C154.77 144.835 157.09 144.106 158.774 142.423C160.003 141.239 161.141 140.011 162.187 138.691C165.782 141.422 169.969 143.333 174.383 144.289C181.437 145.836 189.856 149.658 189.856 159.033C189.856 169.409 182.302 178.465 182.074 188.522C181.847 198.261 190.084 204.04 199.458 202.812C209.106 201.583 214.521 195.712 221.575 192.117C217.024 199.581 211.063 206.088 204.055 211.322Z" fill="#A0B0AB"/>
<path d="M52.3768 217.238C28.2121 206.361 13.7407 189.979 9.41741 168.59C3.04631 137.235 20.4303 101.011 39.2705 80.6688C40.7268 79.0305 40.6358 76.5276 38.9975 75.0258C37.4047 73.524 34.8563 73.615 33.3545 75.2078C12.4664 97.7342 -5.46365 135.87 1.54456 170.183C6.4594 194.256 22.4326 212.55 49.0547 224.564C51.0571 225.475 53.469 224.564 54.3791 222.562C55.2893 220.514 54.3791 218.148 52.3768 217.238Z" fill="#A0B0AB"/>
<path d="M36.6311 163.538C35.3114 153.299 38.5424 142.969 45.5506 135.323C47.0524 133.731 47.0524 131.228 45.5051 129.681C43.9579 128.133 41.4549 128.088 39.8622 129.635C31.1702 138.964 27.0745 151.661 28.6217 164.312C30.442 182.652 41.7735 199.672 60.5227 212.141C62.3885 213.369 64.8459 212.869 66.0747 211.049C67.3034 209.183 66.8028 206.725 64.9825 205.497C48.2811 194.347 38.2239 179.466 36.6311 163.538Z" fill="#A0B0AB"/>
<path d="M65.7563 171.183C64.7096 165.632 66.1203 159.852 69.6244 155.438C71.1262 153.845 71.1262 151.342 69.5789 149.795C68.0317 148.248 65.5287 148.202 63.936 149.749C53.8332 159.852 54.6524 182.287 71.9908 199.626C73.5836 201.128 76.0865 201.128 77.6338 199.58C79.1811 198.033 79.2266 195.53 77.6793 193.937C71.3082 187.885 67.1215 179.875 65.7563 171.183Z" fill="#A0B0AB"/>
<path d="M46.6883 72.2496C48.9 72.2496 50.693 70.4566 50.693 68.2449C50.693 66.0332 48.9 64.2402 46.6883 64.2402C44.4766 64.2402 42.6836 66.0332 42.6836 68.2449C42.6836 70.4566 44.4766 72.2496 46.6883 72.2496Z" fill="#A0B0AB"/>
</svg>
