<svg width="256" height="256" viewBox="0 0 256 256" fill="none" xmlns="http://www.w3.org/2000/svg">
<path d="M256 30.45C256.1 22.3 252.95 14.6 247.15 8.8C241.45 3.15 233.9 0 225.85 0C225.75 0 225.65 0 225.55 0C217.4 0.1 209.75 3.4 204.1 9.25L159.3 55.95L42.05 17.15L7.4 51.8L105.4 112.15L65.1 154.15L33.45 148.95L0 182.4L54.55 201.5L73.6 256L107.05 222.55L101.85 190.9L143.85 150.6L204.2 248.6L238.85 213.95L200.05 96.7L246.75 51.9C252.6 46.25 255.9 38.65 256 30.45ZM236.35 41.05L182.8 92.45L221.65 209.9L207 224.55L146.9 126.9L85.75 185.55L91 217.4L79.9 228.5L66.3 189.7L27.5 176.1L38.6 165L70.45 170.25L129.1 109.1L31.45 48.95L46.1 34.3L163.55 73.15L214.95 19.65C217.8 16.7 221.6 15.05 225.7 15C225.75 15 225.8 15 225.85 15C229.9 15 233.7 16.55 236.55 19.45C239.45 22.35 241 26.2 241 30.3C240.95 34.4 239.3 38.25 236.35 41.05Z" fill="#A0B0AB"/>
</svg>
