<svg width="580" height="484" viewBox="0 0 580 484" fill="none" xmlns="http://www.w3.org/2000/svg">
<path d="M507.5 326.25C474.472 329.069 441.731 334.596 409.608 342.776C403.522 310.979 360.783 299.216 316.574 290.236C298.597 286.211 281.236 279.811 264.948 271.202C246.794 260.688 226.374 254.702 205.417 253.75C182.157 254.205 159.053 257.661 136.678 264.032C133.659 256.717 128.884 250.258 122.776 245.225C116.669 240.193 109.416 236.742 101.658 235.177L14.4551 217.737C12.702 217.399 10.8965 217.449 9.16437 217.881C7.43224 218.313 5.81517 219.117 4.42589 220.238C3.04369 221.372 1.92993 222.798 1.16466 224.414C0.399398 226.03 0.00164639 227.795 2.03496e-06 229.583V422.917C-0.000919264 424.504 0.310997 426.075 0.917915 427.542C1.52483 429.008 2.41485 430.341 3.53707 431.463C4.6593 432.585 5.99172 433.475 7.45815 434.082C8.92459 434.689 10.4963 435.001 12.0833 435H77.3145C85.8804 434.962 94.2839 432.658 101.672 428.324C109.061 423.99 115.172 417.778 119.385 410.32C157.315 428.448 276.288 483.333 326.25 483.333C373.12 483.333 469.586 435.909 533.413 404.532C550.075 396.343 563.846 389.569 572.778 385.652C574.926 384.706 576.752 383.156 578.034 381.191C579.316 379.225 579.999 376.93 580 374.583C580 346.121 550.181 326.25 507.5 326.25ZM522.746 382.843C464.689 411.389 367.502 459.167 326.25 459.167C284.753 459.167 174.452 410.088 126.124 386.773L140.032 289.41C140.091 288.997 140.038 288.597 140.087 288.186C161.319 281.914 183.284 278.462 205.417 277.917C222.728 278.959 239.54 284.117 254.458 292.962C272.546 302.458 291.815 309.509 311.759 313.93C364.27 324.574 386.667 335.489 386.667 350.417C386.757 351.683 386.508 352.951 385.946 354.089C385.384 355.228 384.529 356.196 383.469 356.895C375.822 362.63 345.815 372.282 233.017 338.829C229.944 337.918 226.635 338.266 223.818 339.795C221 341.324 218.906 343.91 217.995 346.983C217.085 350.056 217.432 353.365 218.961 356.183C220.491 359 223.076 361.094 226.149 362.005C267.644 375.944 310.819 384.259 354.523 386.727C369.73 387.887 384.917 384.225 397.924 376.261C400.702 374.136 403.118 371.575 405.079 368.679C438.702 359.98 472.943 353.874 507.5 350.417C516.062 349.504 524.72 350.585 532.795 353.574C540.871 356.562 548.146 361.378 554.051 367.645C545.614 371.611 534.935 376.861 522.746 382.843Z" fill="#A0B0AB"/>
<path d="M350.417 241.667H519.584C529.195 241.656 538.409 237.834 545.205 231.038C552.001 224.242 555.823 215.028 555.834 205.417V60.4167C555.823 50.8058 552.001 41.5916 545.205 34.7956C538.409 27.9997 529.195 24.1772 519.584 24.1667H507.5V12.0833C507.5 8.87863 506.227 5.80519 503.961 3.53913C501.695 1.27306 498.622 0 495.417 0C492.212 0 489.139 1.27306 486.873 3.53913C484.607 5.80519 483.334 8.87863 483.334 12.0833V24.1667H386.667V12.0833C386.667 8.87863 385.394 5.80519 383.128 3.53913C380.862 1.27306 377.788 0 374.584 0C371.379 0 368.306 1.27306 366.039 3.53913C363.773 5.80519 362.5 8.87863 362.5 12.0833V24.1667H350.417C340.806 24.1772 331.592 27.9997 324.796 34.7956C318 41.5916 314.177 50.8058 314.167 60.4167V205.417C314.177 215.028 318 224.242 324.796 231.038C331.592 237.834 340.806 241.656 350.417 241.667ZM338.334 60.4167C338.336 57.2126 339.61 54.1405 341.875 51.8749C344.141 49.6093 347.213 48.3355 350.417 48.3333H362.5V60.4167C362.5 63.6214 363.773 66.6948 366.039 68.9609C368.306 71.2269 371.379 72.5 374.584 72.5C377.788 72.5 380.862 71.2269 383.128 68.9609C385.394 66.6948 386.667 63.6214 386.667 60.4167V48.3333H483.334V60.4167C483.334 63.6214 484.607 66.6948 486.873 68.9609C489.139 71.2269 492.212 72.5 495.417 72.5C498.622 72.5 501.695 71.2269 503.961 68.9609C506.227 66.6948 507.5 63.6214 507.5 60.4167V48.3333H519.584C522.788 48.3355 525.86 49.6093 528.125 51.8749C530.391 54.1405 531.665 57.2126 531.667 60.4167V96.6667H338.334V60.4167Z" fill="#A0B0AB"/>
</svg>
