<svg width="267" height="307" viewBox="0 0 267 307" fill="none" xmlns="http://www.w3.org/2000/svg">
<path d="M261.661 214.9H149.114V204.647H246.311C248.829 204.647 250.988 202.788 251.347 200.27C253.326 178.384 250.868 156.318 244.152 135.392C234.139 102.353 209.435 55.284 149.054 17.6885V15.35C149.054 6.89551 142.159 0 133.704 0C125.25 0 118.354 6.89551 118.354 15.35V19.6672C88.2537 114.106 3.16914 194.993 2.32969 195.832C0.830665 197.271 0.291018 199.49 1.07051 201.469C1.85 203.447 3.70879 204.707 5.80742 204.707H118.354V214.96H21.2174C19.0588 214.96 17.0801 216.339 16.3605 218.378L2.56953 257.952C-1.86758 268.985 -0.488475 281.517 6.16719 291.35C12.8229 301.124 23.9756 307 35.8479 307H205.058C219.628 307.06 232.82 298.246 238.216 284.695L266.338 222.095C267.057 220.536 266.937 218.678 265.978 217.238C265.019 215.799 263.4 214.9 261.661 214.9ZM241.634 194.453H149.114V29.7406C241.334 90.3012 242.713 174.426 241.634 194.453ZM18.1594 194.453C38.6061 173.287 89.6328 116.384 118.414 48.9281V194.453H18.1594ZM128.667 15.35C128.667 12.5318 130.946 10.2533 133.764 10.2533C136.582 10.2533 138.861 12.5318 138.861 15.35V214.9H128.607V15.35H128.667ZM118.414 225.153H253.746L244.572 245.6H17.6797L24.815 225.153H118.414ZM228.802 280.677C224.965 290.391 215.491 296.807 205.058 296.747H35.8479C27.3334 296.747 19.3586 292.489 14.5617 285.414C9.82481 278.339 8.92539 269.345 12.1633 261.43L14.142 255.793H240.015L228.802 280.677Z" fill="#A0B0AB"/>
<path d="M103.064 266.047H26.314C23.4958 266.047 21.2173 268.325 21.2173 271.144C21.2173 273.962 23.4958 276.24 26.314 276.24H103.064C105.882 276.24 108.161 273.962 108.161 271.144C108.161 268.325 105.882 266.047 103.064 266.047Z" fill="#A0B0AB"/>
<path d="M128.667 266.047H123.571C120.753 266.047 118.474 268.325 118.474 271.144C118.474 273.962 120.753 276.24 123.571 276.24H128.667C131.486 276.24 133.764 273.962 133.764 271.144C133.764 268.325 131.486 266.047 128.667 266.047Z" fill="#A0B0AB"/>
<path d="M215.071 164.772C215.551 167.171 217.649 168.85 220.108 168.85C220.467 168.85 220.767 168.79 221.127 168.73C223.885 168.19 225.684 165.492 225.144 162.734C214.771 110.808 174.477 65.0574 172.798 63.1387C171.599 61.6996 169.74 61.04 167.882 61.3998C166.023 61.7596 164.584 63.0787 163.984 64.8775C163.385 66.6764 163.864 68.5951 165.123 69.9742C165.483 70.334 205.237 115.485 215.071 164.772Z" fill="#A0B0AB"/>
<path d="M103.064 173.947H82.6172C79.799 173.947 77.5205 176.225 77.5205 179.043C77.5205 181.862 79.799 184.14 82.6172 184.14H103.064C105.882 184.14 108.161 181.862 108.161 179.043C108.161 176.225 105.882 173.947 103.064 173.947Z" fill="#A0B0AB"/>
</svg>
