<svg width="330" height="330" viewBox="0 0 330 330" fill="none" xmlns="http://www.w3.org/2000/svg">
<path d="M99 187C95.9599 187 93.5 189.463 93.5 192.5C93.5 195.532 91.0346 198 88 198C84.9599 198 82.5 200.463 82.5 203.5V220H93.5V208.057C98.1839 206.398 101.901 202.681 103.56 198H115.5V187H99Z" fill="#A0B0AB"/>
<path d="M103.56 264C101.901 259.319 98.1839 255.602 93.5 253.943V242H82.5V258.5C82.5 261.537 84.9599 264 88 264C91.0346 264 93.5 266.468 93.5 269.5C93.5 272.537 95.9599 275 99 275H115.5V264H103.56Z" fill="#A0B0AB"/>
<path d="M242 198C238.965 198 236.5 195.532 236.5 192.5C236.5 189.463 234.04 187 231 187H214.5V198H226.44C228.099 202.681 231.816 206.398 236.5 208.057V220H247.5V203.5C247.5 200.463 245.04 198 242 198Z" fill="#A0B0AB"/>
<path d="M236.5 242V253.943C231.816 255.602 228.099 259.319 226.44 264H214.5V275H231C234.04 275 236.5 272.537 236.5 269.5C236.5 266.468 238.965 264 242 264C245.04 264 247.5 261.537 247.5 258.5V242H236.5Z" fill="#A0B0AB"/>
<path d="M130.008 231C130.008 216.702 137.528 204.12 150.112 197.342L144.902 187.658C128.686 196.386 119.008 212.591 119.008 231C119.008 249.409 128.686 265.615 144.902 274.342L150.112 264.658C137.527 257.88 130.008 245.298 130.008 231Z" fill="#A0B0AB"/>
<path d="M183.117 187.658L177.896 197.342C190.485 204.12 198 216.702 198 231C198 245.298 190.485 257.88 177.896 264.658L183.117 274.342C199.321 265.615 209 249.409 209 231C209 212.591 199.321 196.386 183.117 187.658Z" fill="#A0B0AB"/>
<path d="M110 225.5H99V236.5H110V225.5Z" fill="#A0B0AB"/>
<path d="M231 225.5H220V236.5H231V225.5Z" fill="#A0B0AB"/>
<path d="M264 165H66C62.9599 165 60.5 167.463 60.5 170.5V291.5C60.5 294.537 62.9599 297 66 297H264C267.04 297 269.5 294.537 269.5 291.5V170.5C269.5 167.463 267.04 165 264 165ZM258.5 286H71.5V176H258.5V286Z" fill="#A0B0AB"/>
<path d="M181.5 220V209C181.5 205.963 179.04 203.5 176 203.5H170.5V198H159.5V203.5H154C150.96 203.5 148.5 205.963 148.5 209V231C148.5 234.037 150.96 236.5 154 236.5H170.5V247.5H159.5V242H148.5V253C148.5 256.037 150.96 258.5 154 258.5H159.5V264H170.5V258.5H176C179.04 258.5 181.5 256.037 181.5 253V231C181.5 227.963 179.04 225.5 176 225.5H159.5V214.5H170.5V220H181.5Z" fill="#A0B0AB"/>
<path d="M269.5 302.5H60.5V313.5H269.5V302.5Z" fill="#A0B0AB"/>
<path d="M269.5 319H60.5V330H269.5V319Z" fill="#A0B0AB"/>
<path d="M328.388 100.612L257.435 29.6574C253.423 12.6837 238.179 0 220 0H209C187.773 0 170.5 17.2707 170.5 38.5V66C170.5 69.0319 168.034 71.5 165 71.5H159.061C156.377 52.8736 140.354 38.5 121 38.5C108.383 38.5 96.5668 44.7494 89.434 55H21.9998C20.5389 55 19.1426 55.5803 18.1113 56.6115L1.61133 73.1115C-0.537109 75.2599 -0.537109 78.7408 1.61133 80.8892L18.1113 97.3892C20.2598 99.5376 23.7406 99.5376 25.889 97.3892L32.9998 90.2777L40.1113 97.3892C42.2598 99.5376 45.7406 99.5376 47.889 97.3892L54.9998 90.2777L62.1113 97.3892C64.2598 99.5376 67.7406 99.5376 69.889 97.3892L76.9998 90.2777L84.1113 97.3892C85.1426 98.4204 86.5389 99.0007 87.9998 99.0007H89.434C96.5668 109.251 108.384 115.501 121 115.501C140.354 115.501 156.377 101.127 159.061 82.5007H165C174.098 82.5007 181.5 75.0991 181.5 66.0007V38.5C181.5 23.3372 193.837 11 209 11H220C232.796 11 243.486 19.8261 246.541 31.6821L177.611 100.612C175.463 102.76 175.463 106.241 177.611 108.389L188.611 119.389C190.76 121.538 194.241 121.538 196.389 119.389L203.5 112.278V148.5C203.5 151.537 205.96 154 209 154H297C300.04 154 302.5 151.537 302.5 148.5V112.277L309.611 119.389C311.76 121.537 315.241 121.537 317.389 119.389L328.389 108.389C330.537 106.24 330.537 102.76 328.388 100.612ZM121 60.5C111.901 60.5 104.5 67.9016 104.5 77C104.5 86.0984 111.901 93.5 121 93.5C128.161 93.5 134.209 88.8883 136.486 82.5H147.944C145.389 95.0359 134.28 104.5 121.001 104.5C111.209 104.5 102.1 99.2338 97.2226 90.7555C96.2395 89.0505 94.419 88 92.4528 88H90.2775L80.889 78.6115C78.7406 76.4631 75.2598 76.4631 73.1113 78.6115L65.9998 85.723L58.8883 78.6115C56.7399 76.4631 53.2591 76.4631 51.1106 78.6115L43.9998 85.723L36.8883 78.6115C34.7399 76.4631 31.2591 76.4631 29.1106 78.6115L21.9998 85.723L13.2775 77L24.2775 66H92.4528C94.4183 66 96.2395 64.9502 97.2226 63.2445C102.099 54.7663 111.208 49.5 121 49.5C134.279 49.5 145.388 58.9641 147.944 71.5H136.486C134.209 65.1118 128.161 60.5 121 60.5ZM126.5 77C126.5 80.0319 124.034 82.5 121 82.5C117.965 82.5 115.5 80.0319 115.5 77C115.5 73.9681 117.965 71.5 121 71.5C124.034 71.5 126.5 73.9681 126.5 77ZM313.5 107.723L300.888 95.1115C299.315 93.5378 296.951 93.0731 294.894 93.9194C292.837 94.7705 291.5 96.7766 291.5 99V143H214.5V99C214.5 96.7766 213.163 94.7705 211.105 93.9187C209.053 93.0676 206.684 93.5344 205.111 95.1108L192.5 107.723L189.278 104.5L253 40.7777L316.723 104.5L313.5 107.723Z" fill="#A0B0AB"/>
<path d="M275 77H231C227.96 77 225.5 79.4626 225.5 82.5V126.5C225.5 129.537 227.96 132 231 132H275C278.04 132 280.5 129.537 280.5 126.5V82.5C280.5 79.4626 278.04 77 275 77ZM247.5 121H236.5V110H247.5V121ZM247.5 99H236.5V88H247.5V99ZM269.5 121H258.5V110H269.5V121ZM269.5 99H258.5V88H269.5V99Z" fill="#A0B0AB"/>
</svg>
