<svg width="212" height="212" viewBox="0 0 212 212" fill="none" xmlns="http://www.w3.org/2000/svg">
<path d="M143.538 126.18C143.084 124.758 143.586 123.21 144.79 122.327L171.697 102.586C175.981 99.4436 177.689 94.148 176.047 89.0954C174.405 84.0421 169.911 80.7611 164.598 80.7367L131.226 80.5821C129.733 80.5749 128.416 79.6186 127.949 78.2014L117.489 46.5096C115.824 41.4642 111.315 38.2048 106.003 38.2041C100.69 38.2041 96.1807 41.4642 94.5154 46.5089L89.8007 60.788C89.0537 63.0501 90.2818 65.4904 92.5446 66.2368C94.8073 66.9853 97.2463 65.7558 97.9941 63.493L102.709 49.2138C103.438 47.0043 105.414 46.8324 106.003 46.8324C106.591 46.8324 108.567 47.0043 109.296 49.2138L119.755 80.9064C121.388 85.8497 125.981 89.1867 131.186 89.2111L164.558 89.3657C166.885 89.3765 167.659 91.2028 167.84 91.7622C168.022 92.3216 168.469 94.2537 166.594 95.6299L139.685 115.371C135.488 118.45 133.734 123.85 135.319 128.809L145.489 160.605C146.198 162.822 144.7 164.123 144.224 164.468C143.748 164.814 142.049 165.837 140.16 164.477L113.069 144.982C108.843 141.941 103.164 141.941 98.9374 144.982L71.8416 164.481C69.9527 165.84 68.253 164.818 67.7777 164.472C67.3017 164.127 65.8039 162.827 66.5122 160.61L76.6785 128.809C78.264 123.851 76.5088 118.451 72.3126 115.371L45.4059 95.6306C43.5299 94.2544 43.9772 92.3217 44.1591 91.763C44.341 91.2036 45.1154 89.3772 47.4414 89.3664L80.8158 89.2119C83.1979 89.2004 85.1206 87.2604 85.1098 84.8776C85.0983 82.5019 83.1692 80.5835 80.7957 80.5835C80.7892 80.5835 80.782 80.5835 80.7755 80.5835L47.4012 80.7381C42.0883 80.7626 37.5944 84.0435 35.9528 89.0968C34.3113 94.1501 36.0183 99.4458 40.3015 102.589L67.2082 122.33C68.4111 123.212 68.9145 124.761 68.46 126.182L58.2944 157.984C56.6766 163.044 58.4088 168.332 62.7071 171.454C64.8642 173.021 67.3391 173.805 69.8154 173.805C72.2738 173.805 74.7335 173.032 76.8827 171.486L103.978 151.986C105.189 151.114 106.818 151.114 108.03 151.986L135.12 171.482C139.433 174.586 144.997 174.574 149.296 171.451C153.595 168.328 155.326 163.04 153.708 157.979L143.538 126.18Z" fill="#A0B0AB"/>
<path d="M106 0C47.5514 0 0 47.5514 0 106C0 164.448 47.5514 211.999 106 211.999C108.382 211.999 110.314 210.067 110.314 207.685C110.314 205.303 108.382 203.371 106 203.371C52.3092 203.372 8.62832 159.691 8.62832 106C8.62832 52.3085 52.3092 8.62832 106 8.62832C159.69 8.62832 203.371 52.3092 203.371 106C203.371 139.42 186.531 170.124 158.324 188.133C156.316 189.415 155.727 192.082 157.009 194.09C158.291 196.099 160.958 196.688 162.967 195.406C193.669 175.803 211.999 142.381 211.999 106C212 47.5514 164.449 0 106 0Z" fill="#A0B0AB"/>
</svg>
