<svg width="330" height="330" viewBox="0 0 330 330" fill="none" xmlns="http://www.w3.org/2000/svg">
<path d="M314.982 166.342V119.935C314.982 104.209 302.801 91.4471 287.396 90.158L244.342 15.0057C240.346 8.04475 233.9 3.08186 226.166 1.01936C218.496 -1.04314 210.439 0.0525677 203.607 4.04866L55.9453 89.9647H29.9707C13.4707 89.9647 0 103.435 0 120V300.017C0 316.517 13.4707 329.988 29.9707 329.988H284.947C301.512 329.988 314.918 316.517 314.918 300.017V253.611C323.619 250.517 329.936 242.267 329.936 232.471V187.482C330 177.75 323.684 169.5 314.982 166.342ZM269.93 89.9647H204.574L253.623 61.4119L269.93 89.9647ZM246.146 48.4569L174.732 90.0291H145.148L238.734 35.5662L246.146 48.4569ZM211.148 17.0037C214.564 15.0057 218.496 14.4901 222.299 15.5213C226.102 16.5526 229.324 19.0018 231.322 22.4823L115.371 89.9647H85.7227L211.148 17.0037ZM300.029 300.017C300.029 308.267 293.326 315.035 285.012 315.035H29.9707C21.7207 315.035 14.9531 308.332 14.9531 300.017V120C14.9531 111.75 21.6563 104.982 29.9707 104.982H284.947C293.197 104.982 299.965 111.685 299.965 120V164.988H254.977C230.162 164.988 209.988 185.162 209.988 209.976C209.988 234.791 230.162 254.965 254.977 254.965H299.965L300.029 300.017ZM314.982 232.471C314.982 236.596 311.631 239.947 307.506 239.947H254.977C238.412 239.947 225.006 226.476 225.006 209.976C225.006 193.412 238.477 180.006 254.977 180.006H307.506C311.631 180.006 314.982 183.357 314.982 187.482V232.471Z" fill="#A0B0AB"/>
<path d="M254.977 194.959C246.727 194.959 239.959 201.662 239.959 209.977C239.959 218.291 246.662 224.994 254.977 224.994C263.291 224.994 269.994 218.291 269.994 209.977C269.994 201.727 263.291 194.959 254.977 194.959Z" fill="#A0B0AB"/>
</svg>
